<?xml version="1.0" standalone="no"?>
<!DOCTYPE svg PUBLIC "-//W3C//DTD SVG 20010904//EN"
 "http://www.w3.org/TR/2001/REC-SVG-20010904/DTD/svg10.dtd">
<svg version="1.0" xmlns="http://www.w3.org/2000/svg"
 width="225.000000pt" height="225.000000pt" viewBox="0 0 225.000000 225.000000"
 preserveAspectRatio="xMidYMid meet">
<metadata>
Created by potrace 1.10, written by Peter Selinger 2001-2011
</metadata>
<g transform="translate(0.000000,225.000000) scale(0.100000,-0.100000)" fill="#046a52" stroke="red">

<path d="M0 1125 l0 -1125 1125 0 1125 0 0 1125 0 1125 -1125 0 -1125 0 0
-1125z m940 959 c0 -8 -19 -13 -24 -6 -3 5 1 9 9 9 8 0 15 -2 15 -3z m378 -31
c47 -68 142 -244 142 -264 0 -22 -132 -260 -155 -279 -8 -7 -71 -10 -176 -8
l-164 3 -31 47 c-17 26 -54 91 -83 143 l-53 95 72 128 c40 70 79 135 88 145
13 15 35 17 178 17 l163 0 19 -27z m-496 -428 c42 -71 77 -140 77 -153 1 -21
-89 -188 -142 -265 l-19 -27 -170 2 -170 3 -79 135 c-43 74 -79 140 -79 146 0
13 136 252 158 277 14 16 33 17 181 15 l166 -3 77 -130z m1046 113 c27 -34
152 -262 152 -279 0 -29 -91 -182 -102 -171 -5 5 -4 20 3 38 6 16 12 38 15 48
4 22 40 59 47 48 2 -4 2 -1 0 7 -2 7 1 19 7 26 8 9 8 15 0 20 -5 3 -10 15 -10
26 0 10 -5 19 -11 19 -6 0 -8 -7 -4 -17 5 -15 4 -16 -7 -5 -10 10 -10 16 0 32
10 16 10 20 0 18 -7 -2 -12 5 -12 14 1 10 -2 16 -6 13 -9 -6 -26 34 -21 49 1
5 -6 3 -15 -5 -16 -13 -16 -12 -4 11 13 24 12 24 -5 10 -17 -14 -18 -14 -6 7
10 20 9 22 -6 16 -12 -5 -15 -2 -10 10 4 10 2 16 -6 14 -7 -1 -12 7 -11 18 1
20 -4 21 -153 19 -91 -2 -151 1 -148 7 10 15 0 10 -25 -11 -13 -11 -19 -20
-15 -20 5 0 4 -5 -3 -12 -16 -16 -15 -31 1 -22 7 5 7 1 -3 -12 -22 -29 -24
-30 -17 -11 4 9 4 17 2 17 -7 0 -36 -70 -44 -105 -4 -16 -12 -30 -18 -30 -17
0 -26 -12 -29 -40 -2 -22 6 -30 29 -26 14 2 7 -14 -13 -27 -11 -7 -20 -17 -20
-23 0 -8 4 -8 14 0 18 15 25 4 21 -32 -2 -15 1 -25 6 -21 5 3 12 -3 15 -13 3
-10 11 -29 17 -43 15 -35 18 -68 5 -76 -7 -5 -8 -2 -3 7 8 12 6 12 -8 0 -12
-9 -17 -10 -17 -2 0 8 -5 9 -19 2 -10 -6 -21 -8 -25 -6 -3 3 -4 2 -1 -2 3 -4
28 -8 55 -10 40 -2 48 0 43 12 -3 8 0 15 5 15 6 0 9 -9 7 -19 -3 -17 1 -19 37
-16 37 4 39 3 22 -11 -17 -13 -17 -13 8 -5 15 6 83 11 152 12 71 0 123 5 120
10 -3 5 0 9 5 9 6 0 11 7 11 16 0 9 5 12 12 8 7 -5 9 -2 5 9 -7 19 18 44 28
27 4 -6 -6 -32 -22 -58 l-29 -47 -172 -3 c-112 -2 -172 1 -172 8 0 6 -69 10
-197 10 l-198 0 0 -55 0 -54 105 -3 c100 -3 105 -4 108 -26 2 -12 -12 -48 -33
-82 l-36 -60 -139 0 -138 0 -68 117 -68 117 44 81 c23 45 55 99 69 121 l27 39
129 3 c72 1 135 -1 141 -5 17 -13 75 -114 70 -122 -3 -4 26 -9 64 -10 39 -1
70 1 70 4 0 4 -25 49 -56 101 -37 64 -53 101 -49 114 8 26 133 240 153 263 13
15 35 17 177 17 118 0 165 -3 173 -12z m-1535 -23 c-3 -9 -8 -14 -10 -11 -3 3
-2 9 2 15 9 16 15 13 8 -4z m1634 -47 c-3 -8 -6 -5 -6 6 -1 11 2 17 5 13 3 -3
4 -12 1 -19z m-113 -14 c3 -8 2 -12 -4 -9 -6 3 -10 10 -10 16 0 14 7 11 14 -7z
m-888 -216 c4 -7 3 -8 -4 -4 -7 4 -12 2 -12 -5 0 -7 -3 -10 -6 -6 -6 5 3 27
11 27 2 0 7 -5 11 -12z m967 -5 c-5 -12 -3 -14 7 -8 9 6 11 4 5 -4 -5 -9 -11
-9 -17 -3 -6 6 -7 15 -4 21 11 17 16 13 9 -6z m-583 -69 c0 -8 -19 -13 -24 -6
-3 5 1 9 9 9 8 0 15 -2 15 -3z m138 -19 c-3 -3 -9 2 -12 12 -6 14 -5 15 5 6 7
-7 10 -15 7 -18z m30 0 c-3 -3 -9 2 -12 12 -6 14 -5 15 5 6 7 -7 10 -15 7 -18z
m-595 -10 c-3 -9 -8 -14 -10 -11 -3 3 -2 9 2 15 9 16 15 13 8 -4z m567 -40 c0
-5 -5 -3 -10 5 -5 8 -10 20 -10 25 0 6 5 3 10 -5 5 -8 10 -19 10 -25z m21 -38
c-10 -9 -11 -8 -5 6 3 10 9 15 12 12 3 -3 0 -11 -7 -18z m349 -22 c0 -5 -5 -3
-10 5 -5 8 -10 20 -10 25 0 6 5 3 10 -5 5 -8 10 -19 10 -25z m111 -2 c-8 -15
-10 -15 -11 -2 0 17 10 32 18 25 2 -3 -1 -13 -7 -23z m-54 -75 c4 -28 -6 -18
-12 12 -2 12 -1 20 2 16 4 -4 8 -16 10 -28z m-1127 8 c0 -2 -8 -10 -17 -17
-16 -13 -17 -12 -4 4 13 16 21 21 21 13z m696 -32 c-9 -8 -16 -20 -16 -26 0
-6 -3 -9 -6 -6 -8 9 14 48 27 48 6 0 3 -7 -5 -16z m-1151 -3 c-3 -5 -1 -12 5
-16 5 -3 10 -11 10 -18 0 -6 -6 -2 -14 8 -13 18 -13 35 0 35 3 0 3 -4 -1 -9z
m405 -21 c16 -8 120 -176 120 -193 0 -4 -8 -11 -18 -16 -14 -7 -18 -6 -18 9 0
10 4 16 8 14 4 -3 8 -1 8 4 0 14 -26 33 -34 24 -4 -4 -7 -2 -5 3 1 6 -1 19 -5
30 -4 11 -13 33 -18 48 -6 15 -13 26 -15 23 -3 -2 1 -14 7 -26 6 -12 9 -24 7
-27 -3 -3 -12 8 -21 25 -8 16 -12 32 -9 36 4 3 1 6 -5 6 -7 0 -12 -5 -12 -12
0 -6 -3 -8 -7 -4 -5 4 0 14 11 21 16 12 -1 14 -123 17 -78 2 -146 -1 -151 -6
-6 -6 -15 -4 -25 4 -10 8 -15 9 -16 1 -1 -6 -2 -16 -3 -21 0 -6 -7 -15 -15
-19 -8 -5 -10 -14 -6 -21 5 -9 4 -11 -3 -6 -15 9 -15 1 -1 -27 9 -20 9 -20 -4
-4 -19 23 -26 22 -19 -5 3 -13 1 -19 -5 -15 -6 4 -18 -11 -28 -33 -10 -22 -22
-37 -28 -33 -6 4 -7 1 -2 -7 4 -7 9 -29 11 -48 2 -25 0 -31 -6 -22 -5 8 -7 24
-4 35 4 14 0 12 -14 -8 -20 -29 -22 -74 -3 -70 6 2 11 -2 11 -9 0 -6 3 -9 6
-6 3 4 -2 19 -12 35 -17 27 -17 27 1 11 10 -9 20 -32 22 -50 6 -61 5 -59 20
-46 11 8 12 7 7 -6 -4 -12 -2 -15 9 -10 8 3 18 1 21 -4 3 -5 -5 -8 -19 -7 -16
2 -22 -1 -18 -10 2 -8 10 -12 18 -9 7 3 15 -2 19 -11 3 -9 2 -14 -2 -11 -5 3
-9 -1 -9 -8 0 -8 6 -12 12 -9 7 2 17 -9 23 -27 13 -34 44 -70 49 -55 3 9 238
12 272 4 7 -2 15 4 16 14 5 26 35 58 48 50 5 -3 7 -1 4 4 -4 6 3 23 14 37 12
15 18 33 15 41 -3 8 -1 15 4 15 6 0 10 7 10 16 0 8 4 13 8 10 5 -3 15 7 22 22
7 15 17 36 22 47 6 11 7 17 3 12 -12 -10 -37 65 -25 77 8 8 50 -61 50 -84 0
-14 -150 -273 -164 -282 -6 -4 -82 -8 -168 -8 -124 0 -160 3 -171 15 -23 22
-157 261 -157 279 0 23 136 257 161 279 18 14 43 17 166 17 79 0 153 -4 163
-10z m1211 -140 c43 -74 79 -141 79 -149 0 -8 -37 -76 -81 -153 l-82 -138
-170 2 -171 3 -78 135 c-43 74 -78 142 -78 151 0 27 81 160 92 152 7 -3 8 -1
4 5 -7 12 1 32 41 95 l24 37 171 -2 171 -3 78 -135z m-1474 105 c0 -8 -4 -12
-9 -9 -5 3 -6 10 -3 15 9 13 12 11 12 -6z m-29 -13 c2 -7 -1 -12 -8 -12 -6 0
-9 4 -6 9 4 5 1 12 -4 14 -6 3 -5 4 2 3 6 -1 14 -8 16 -14z m307 -64 l16 -33
-20 25 c-20 24 -26 40 -16 40 2 0 12 -15 20 -32z m-21 -14 c3 -8 2 -12 -4 -9
-6 3 -10 10 -10 16 0 14 7 11 14 -7z m637 -51 c13 -16 12 -17 -3 -4 -17 13
-22 21 -14 21 2 0 10 -8 17 -17z m-520 -146 c-10 -9 -11 -8 -5 6 3 10 9 15 12
12 3 -3 0 -11 -7 -18z m451 1 c14 -12 34 -44 129 -213 16 -27 29 -58 29 -69 0
-20 -131 -256 -157 -281 -19 -20 -310 -22 -335 -2 -15 11 -150 235 -164 271
-7 18 139 281 164 295 26 16 314 14 334 -1z m-566 -158 c0 -12 -4 -16 -9 -11
-5 5 -6 14 -3 20 10 15 12 14 12 -9z m1234 -23 c0 -2 -10 -12 -22 -23 l-23
-19 19 23 c18 21 26 27 26 19z m26 -17 c0 -12 -4 -16 -9 -11 -5 5 -6 14 -3 20
10 15 12 14 12 -9z m-1061 -410 c-3 -5 -12 -10 -18 -10 -7 0 -6 4 3 10 19 12
23 12 15 0z"/>
<path d="M1006 2059 c4 -8 -1 -9 -17 -4 -19 5 -21 4 -9 -4 13 -10 13 -11 0
-11 -8 0 -21 -9 -28 -21 -8 -12 -10 -19 -5 -16 4 3 8 -6 8 -19 0 -19 -2 -21
-10 -11 -16 22 -36 -4 -22 -29 9 -17 9 -17 -5 -6 -14 11 -17 9 -23 -18 -4 -16
-10 -28 -15 -25 -4 3 -11 -2 -14 -11 -4 -10 -2 -13 7 -8 6 4 1 -5 -12 -19 -14
-16 -21 -32 -17 -43 4 -11 2 -15 -7 -11 -10 4 -13 -2 -11 -18 3 -30 13 -47 24
-40 4 3 11 -6 14 -20 4 -14 16 -35 27 -46 18 -18 19 -23 8 -31 -11 -8 -11 -9
1 -5 9 2 14 14 13 28 -1 13 1 18 4 11 4 -10 8 -10 21 0 13 11 14 10 4 -9 -15
-27 -15 -36 -2 -28 6 4 7 -1 3 -11 -4 -11 -3 -15 5 -10 7 4 9 -4 7 -23 -3 -19
3 -39 16 -54 19 -25 21 -25 156 -24 76 1 144 6 152 11 11 7 13 5 8 -8 -4 -10
-3 -15 4 -11 5 4 7 16 3 27 -4 14 -2 18 5 14 6 -4 11 -3 11 3 0 5 12 28 28 51
15 23 27 47 27 54 1 6 6 10 13 8 7 -1 12 1 11 5 -2 17 14 52 25 56 18 7 18 75
0 102 -9 13 -13 29 -9 34 4 7 0 8 -11 4 -13 -5 -15 -2 -10 13 3 10 1 26 -5 34
-8 12 -9 9 -4 -9 5 -16 4 -21 -4 -17 -6 4 -11 14 -11 21 0 29 -44 115 -62 121
-10 3 -16 8 -14 12 2 4 -52 6 -120 4 -69 -2 -122 -7 -119 -12 8 -13 -8 -18
-30 -9 -17 6 -17 8 -2 8 21 1 22 17 1 25 -9 4 -13 2 -8 -5z m298 -37 c3 -5 -1
-9 -9 -9 -8 0 -12 4 -9 9 3 4 7 8 9 8 2 0 6 -4 9 -8z m13 -44 c-3 -8 -6 -5 -6
6 -1 11 2 17 5 13 3 -3 4 -12 1 -19z m-446 -185 c-12 -20 -14 -14 -5 12 4 9 9
14 11 11 3 -2 0 -13 -6 -23z m-24 -35 c-3 -8 -6 -5 -6 6 -1 11 2 17 5 13 3 -3
4 -12 1 -19z m573 -9 c0 -5 -4 -9 -10 -9 -5 0 -10 7 -10 16 0 8 5 12 10 9 6
-3 10 -10 10 -16z m-42 -44 c-3 -3 -9 2 -12 12 -6 14 -5 15 5 6 7 -7 10 -15 7
-18z"/>
<path d="M916 1631 c-4 -5 -2 -12 4 -16 6 -4 8 -10 6 -14 -3 -4 1 -8 9 -8 18
0 18 7 1 30 -8 11 -17 14 -20 8z"/>
<path d="M424 1728 c7 -5 5 -8 -6 -8 -10 0 -17 -3 -17 -7 3 -21 -2 -33 -12
-27 -8 5 -8 1 0 -14 16 -30 14 -39 -4 -16 -13 17 -14 17 -15 2 0 -9 5 -20 10
-23 6 -3 10 -11 10 -17 0 -5 -9 0 -20 13 -16 19 -19 20 -13 5 4 -12 3 -17 -4
-13 -6 4 -13 -6 -17 -24 -3 -17 -10 -28 -14 -25 -5 3 -14 -6 -21 -20 -8 -19
-8 -24 0 -18 8 4 9 3 5 -4 -4 -6 -2 -20 3 -30 5 -10 7 -29 4 -41 l-6 -22 -11
23 c-7 13 -9 25 -5 28 5 3 5 11 1 17 -5 8 -12 2 -19 -17 -9 -24 -8 -33 3 -45
9 -8 12 -20 8 -27 -5 -8 -2 -9 10 -5 10 4 15 3 11 -3 -3 -6 -3 -16 2 -22 4 -7
8 -15 8 -18 0 -4 28 -49 42 -69 1 -2 9 1 17 8 18 15 30 -13 16 -39 -13 -24
-13 -40 0 -20 8 13 10 13 10 -2 0 -27 26 -46 56 -40 15 3 24 1 21 -4 -3 -5 40
-7 101 -4 59 3 117 2 129 -2 18 -6 21 -4 16 9 -4 10 -2 14 4 10 6 -4 9 4 6 21
-3 22 -2 23 5 8 8 -19 9 -19 15 3 3 13 10 20 17 16 6 -3 9 -3 8 2 -4 13 24 73
32 68 4 -3 8 1 7 8 -1 32 4 48 13 42 6 -3 10 1 10 9 0 9 5 16 10 16 7 0 6 8
-1 23 -11 19 -10 20 2 10 24 -20 22 33 -3 78 -21 38 -46 55 -34 23 3 -8 2 -13
-3 -10 -5 3 -8 17 -8 32 -1 18 2 22 8 13 6 -9 9 -10 9 -2 0 6 -7 18 -15 27 -8
8 -15 19 -15 24 0 14 -30 71 -41 77 -5 4 -7 11 -4 16 8 12 7 12 -176 13 -87 1
-152 -2 -145 -6z m46 -3 c0 -2 -10 -9 -22 -15 -22 -11 -22 -10 -4 4 21 17 26
19 26 11z m280 -30 c6 -8 10 -22 7 -32 -4 -14 -5 -13 -6 5 -1 15 -5 21 -13 16
-6 -4 -8 -3 -4 4 3 5 0 13 -6 15 -8 4 -9 6 -2 6 6 1 17 -6 24 -14z m-403 -331
c-3 -3 -12 -4 -19 -1 -8 3 -5 6 6 6 11 1 17 -2 13 -5z m47 -19 c-4 -8 -11 -12
-16 -9 -6 4 -5 10 3 15 19 12 19 11 13 -6z m376 -59 c0 -2 -7 -7 -16 -10 -8
-3 -12 -2 -9 4 6 10 25 14 25 6z"/>
<path d="M370 1290 c0 -5 5 -10 10 -10 6 0 10 5 10 10 0 6 -4 10 -10 10 -5 0
-10 -4 -10 -10z"/>
<path d="M1427 1555 c-4 -8 -2 -17 3 -20 6 -4 10 3 10 14 0 25 -6 27 -13 6z"/>
<path d="M1385 1480 c-8 -14 14 -52 26 -44 6 3 3 11 -7 18 -9 7 -14 18 -10 24
4 7 5 12 2 12 -3 0 -8 -4 -11 -10z"/>
<path d="M1947 1386 c-4 -10 -1 -13 9 -9 15 6 19 23 5 23 -5 0 -11 -7 -14 -14z"/>
<path d="M996 1346 c-3 -10 2 -25 10 -33 25 -25 15 -27 -12 -2 l-27 24 13 -25
c12 -23 12 -24 -4 -11 -9 8 -16 10 -15 5 5 -16 -12 -54 -22 -49 -5 4 -7 -4 -5
-17 2 -13 9 -22 16 -20 6 1 9 -2 5 -8 -8 -13 -11 -13 -29 6 -15 14 -16 14 -16
-5 0 -11 -4 -22 -9 -25 -5 -4 -8 -17 -6 -31 1 -14 -2 -25 -6 -25 -5 0 0 -9 11
-20 11 -11 20 -25 20 -31 0 -6 7 -8 16 -5 14 5 15 4 4 -9 -10 -12 -9 -15 5
-15 13 0 15 -3 7 -13 -7 -8 -7 -18 -2 -27 6 -8 10 -11 10 -5 0 5 7 -1 16 -13
8 -12 12 -27 8 -34 -5 -8 -2 -9 9 -5 15 6 22 -3 18 -25 0 -4 6 -5 15 -1 13 5
13 7 2 15 -8 6 -4 7 12 3 15 -4 66 -7 114 -8 80 -2 90 -1 114 21 15 14 22 22
15 18 -7 -4 -9 1 -6 15 4 15 8 17 14 8 12 -21 23 36 10 58 -6 10 -11 13 -11 7
0 -14 -123 -10 -162 5 -26 10 -28 15 -28 63 0 79 -8 75 165 80 54 2 89 7 88
13 -2 6 -8 10 -14 10 -6 0 -17 8 -24 18 -10 13 -14 15 -18 5 -6 -13 -8 -1 -10
45 -2 41 -33 52 -164 57 -113 5 -122 4 -127 -14z m42 -31 c-3 -3 -9 2 -12 12
-6 14 -5 15 5 6 7 -7 10 -15 7 -18z m-98 -174 c0 -16 -28 -33 -35 -21 -3 5 1
10 10 10 9 0 13 5 10 10 -3 6 -1 10 4 10 6 0 11 -4 11 -9z m4 -36 c-4 -8 -11
-15 -16 -15 -6 0 -5 6 2 15 7 8 14 15 16 15 2 0 1 -7 -2 -15z"/>
<path d="M1295 1290 c-3 -5 -1 -10 4 -10 6 0 11 5 11 10 0 6 -2 10 -4 10 -3 0
-8 -4 -11 -10z"/>
<path d="M1556 1089 c2 -4 -7 -14 -21 -23 -15 -10 -22 -22 -18 -31 3 -10 0
-15 -8 -13 -8 2 -14 -5 -14 -15 0 -10 -14 -35 -31 -55 -31 -39 -62 -98 -69
-133 -4 -20 15 -59 42 -87 7 -8 10 -18 7 -24 -4 -6 2 -6 15 1 17 10 20 9 15
-4 -4 -8 -11 -15 -18 -15 -6 -1 -1 -9 12 -20 14 -11 20 -24 16 -31 -4 -7 -3
-9 4 -5 6 4 18 -8 27 -28 9 -20 26 -38 37 -42 31 -10 297 -10 295 0 -1 5 4 11
12 14 9 3 11 0 6 -8 -5 -9 -4 -11 3 -6 9 5 8 15 -4 37 -17 34 -14 42 16 44 18
2 19 0 5 -15 -19 -21 -19 -27 0 -27 8 0 12 4 9 9 -3 4 8 29 25 54 17 25 31 48
31 52 0 4 -4 1 -9 -6 -7 -11 -9 -11 -14 2 -4 9 -1 15 5 13 6 -1 15 9 19 23 l7
25 1 -25 c2 -22 4 -21 20 14 15 31 17 46 9 70 -5 17 -12 39 -15 49 -3 10 -11
16 -18 14 -11 -5 -13 0 -16 41 -1 9 -7 24 -13 32 -7 8 -18 29 -26 45 -7 17
-25 41 -39 54 -14 13 -20 20 -12 16 9 -5 12 -4 8 2 -5 7 -20 8 -44 2 -47 -11
-213 -12 -213 -1 0 4 -11 7 -24 7 -13 0 -22 -3 -20 -6z m39 -18 c3 -5 0 -13
-6 -17 -8 -5 -9 -3 -4 6 6 10 4 12 -11 6 -40 -16 -48 -17 -24 -2 30 18 37 19
45 7z m283 -42 c-3 -8 -7 -3 -11 10 -4 17 -3 21 5 13 5 -5 8 -16 6 -23z m-361
-65 c-3 -3 -12 -4 -19 -1 -8 3 -5 6 6 6 11 1 17 -2 13 -5z m-27 -24 c0 -5 -5
-10 -11 -10 -5 0 -7 5 -4 10 3 6 8 10 11 10 2 0 4 -4 4 -10z m-55 -130 c-4 -6
-11 -7 -17 -4 -8 5 -9 1 -4 -12 5 -14 4 -16 -5 -7 -13 13 -3 36 13 27 6 -4 8
2 4 17 -6 20 -5 21 4 6 6 -9 8 -22 5 -27z m543 -25 c-3 -3 -9 2 -12 12 -6 14
-5 15 5 6 7 -7 10 -15 7 -18z m-538 -21 c0 -8 -5 -12 -10 -9 -6 4 -8 11 -5 16
9 14 15 11 15 -7z m60 -53 c-13 -25 -13 -34 0 -26 6 4 7 -1 3 -11 -5 -13 -3
-15 7 -9 9 6 11 4 5 -5 -6 -10 -11 -9 -22 5 -7 11 -13 15 -13 10 0 -4 -3 -6
-6 -3 -3 4 2 18 11 32 20 30 30 35 15 7z"/>
<path d="M985 765 c-31 -10 -34 -14 -16 -14 27 -1 23 -11 -6 -16 -19 -3 -19
-6 -8 -40 6 -17 5 -18 -5 -5 -9 11 -13 12 -17 2 -2 -6 -9 -10 -14 -7 -5 4 -6
-2 -2 -11 4 -12 3 -15 -5 -10 -8 5 -12 0 -12 -12 0 -10 -14 -38 -31 -61 -16
-23 -28 -48 -25 -54 2 -7 5 -5 5 4 1 15 31 49 31 35 0 -16 -34 -57 -44 -53 -7
3 -12 -3 -12 -13 0 -12 5 -16 16 -12 13 5 13 4 0 -13 -12 -15 -12 -17 -1 -10
11 6 13 4 8 -9 -5 -13 -3 -17 7 -13 10 4 13 1 10 -7 -3 -7 2 -19 10 -26 9 -7
13 -16 10 -21 -3 -5 2 -16 10 -25 9 -8 16 -23 17 -32 1 -11 4 -8 10 8 8 23 8
22 5 -7 -2 -32 8 -46 16 -21 3 7 7 5 11 -6 4 -10 3 -15 -3 -11 -18 11 -10 -15
9 -32 11 -9 18 -19 16 -23 -2 -3 63 -7 144 -9 165 -2 173 1 166 59 -3 25 -2
31 5 20 5 -8 8 -31 5 -50 -3 -32 -3 -33 7 -10 5 14 14 32 19 40 5 8 17 29 26
47 9 18 21 29 26 26 6 -3 7 -1 3 6 -4 6 -1 18 8 26 10 10 13 30 11 62 -3 43
-2 46 11 28 17 -23 18 -35 3 -35 -5 0 -7 -5 -4 -11 11 -18 19 0 21 46 1 31 -3
45 -13 49 -8 4 -13 13 -9 21 5 14 -9 29 -29 30 -5 0 -9 12 -7 27 1 15 -3 30
-9 34 -8 5 -9 3 -4 -6 5 -9 4 -11 -4 -6 -9 6 -9 11 1 24 10 12 10 14 1 8 -8
-4 -13 -2 -13 7 0 19 -39 63 -53 59 -6 -2 -6 2 1 11 7 8 10 16 8 18 -2 2 -63
2 -134 -1 -72 -3 -128 -2 -125 3 6 9 -3 8 -52 -8z m306 -78 c-10 -9 -11 -8 -5
6 3 10 9 15 12 12 3 -3 0 -11 -7 -18z m26 -5 c-10 -10 -15 -21 -12 -24 3 -2
-2 -5 -10 -5 -12 0 -10 6 7 24 25 27 39 32 15 5z m-397 -292 c0 -5 -4 -10 -10
-10 -5 0 -10 5 -10 10 0 6 5 10 10 10 6 0 10 -4 10 -10z m407 -66 c-3 -3 -12
-4 -19 -1 -8 3 -5 6 6 6 11 1 17 -2 13 -5z"/>
</g>
</svg>
